<svg width="48" height="48" viewBox="0 0 48 48" fill="none" xmlns="http://www.w3.org/2000/svg">
<path d="M24 44C35.0457 44 44 35.0457 44 24C44 12.9543 35.0457 4 24 4C12.9543 4 4 12.9543 4 24C4 35.0457 12.9543 44 24 44Z" fill="#FFCD3A" stroke="#FFCD3A" stroke-width="2" stroke-linecap="round" stroke-linejoin="round"/>
<path d="M19.8338 22.1666L23.1671 14.6666C23.8302 14.6666 24.4661 14.93 24.9349 15.3989C25.4037 15.8677 25.6671 16.5036 25.6671 17.1666V20.5H30.3838C30.6254 20.4972 30.8647 20.5471 31.0851 20.646C31.3055 20.7449 31.5018 20.8906 31.6603 21.0729C31.8189 21.2552 31.9359 21.4698 32.0032 21.7019C32.0706 21.9339 32.0867 22.1778 32.0505 22.4167L30.9005 29.9167C30.8402 30.3141 30.6383 30.6763 30.3321 30.9367C30.0258 31.197 29.6357 31.3379 29.2338 31.3333H19.8338M19.8338 22.1666V31.3333M19.8338 22.1666H17.6088C17.1372 22.1583 16.6789 22.3234 16.321 22.6307C15.963 22.9379 15.7304 23.3659 15.6671 23.8333V29.6667C15.7304 30.1341 15.963 30.5621 16.321 30.8693C16.6789 31.1765 17.1372 31.3417 17.6088 31.3333H19.8338" stroke="#111111" stroke-width="1.83333" stroke-linecap="round" stroke-linejoin="round"/>
</svg>
