<svg width="42" height="37" viewBox="0 0 42 37" fill="none" xmlns="http://www.w3.org/2000/svg">
<path d="M12.1769 11.0082C12.3951 10.79 12.4824 10.4845 12.4824 10.2227C12.4824 9.78625 12.2642 9.3935 11.8278 9.1753C10.344 8.43342 8.42386 7.29878 8.81662 6.46962C9.1221 5.85866 10.3877 5.94594 13.3552 7.38606H17.6755C16.1481 5.81502 13.0497 2.84751 11.9151 2.36747C10.5622 1.75651 7.50742 2.32383 6.50371 2.14927C5.71819 2.01835 4.58355 0.796429 3.75439 0.18547C3.62347 -0.0763698 3.31799 -0.03273 3.09979 0.14183L0.175917 2.89115C-0.0859223 3.10934 -0.0422825 3.5021 0.219557 3.7203C1.17964 4.54946 2.75067 5.9023 3.97259 7.03694C5.06359 8.04066 10.0385 10.4409 11.4787 11.1391C11.7405 11.2264 12.0023 11.1827 12.1769 11.0082Z" fill="#111111"/>
<path d="M21.7782 15.3285V9.48077C21.7782 9.17529 21.5164 8.91345 21.2109 8.91345H13.7921C13.9667 9.30621 14.0976 9.74261 14.0976 10.179C14.0976 10.79 13.8794 11.3573 13.5303 11.881C13.1812 12.361 12.352 12.7974 11.7411 12.7974C11.4356 12.7974 11.1301 12.7538 10.8246 12.5792C9.42815 11.9246 7.81347 11.1391 6.41699 10.3972V15.3285C6.41699 15.634 6.67883 15.8958 6.98431 15.8958H21.2982C21.56 15.8522 21.7782 15.634 21.7782 15.3285Z" fill="#111111"/>
<path d="M23.4802 29.5988H9.2099C8.90442 29.5988 8.64258 29.8606 8.64258 30.1661V35.9702C8.64258 36.2757 8.90442 36.5375 9.2099 36.5375H23.5238C23.8293 36.5375 24.0911 36.2757 24.0911 35.9702V30.1224C24.0475 29.817 23.7856 29.5988 23.4802 29.5988Z" fill="#C7C7C7"/>
<path d="M40.8913 29.5988H26.621C26.3156 29.5988 26.0537 29.8606 26.0537 30.1661V35.9702C26.0537 36.2757 26.3156 36.5375 26.621 36.5375H40.9349C41.2404 36.5375 41.5022 36.2757 41.5022 35.9702V30.1224C41.4586 29.817 41.1968 29.5988 40.8913 29.5988Z" fill="#C7C7C7"/>
<path d="M40.8913 11.75H26.621C26.3156 11.75 26.0537 12.0118 26.0537 12.3173V18.1214C26.0537 18.4269 26.3156 18.6887 26.621 18.6887H40.9349C41.2404 18.6887 41.5022 18.4269 41.5022 18.1214V12.2737C41.4586 11.9682 41.1968 11.75 40.8913 11.75Z" fill="#C7C7C7"/>
<path d="M9.2099 20.6526C8.90442 20.6526 8.64258 20.9144 8.64258 21.2199V27.024C8.64258 27.3295 8.90442 27.5913 9.2099 27.5913H14.6212C14.9267 27.5913 15.1886 27.3295 15.1886 27.024V21.2199C15.1886 20.9144 14.9267 20.6526 14.6212 20.6526H9.2099Z" fill="#C7C7C7"/>
<path d="M17.1523 21.2199V27.024C17.1523 27.3295 17.4142 27.5913 17.7197 27.5913H32.4263C32.7318 27.5913 32.9936 27.3295 32.9936 27.024V21.2199C32.9936 20.9144 32.7318 20.6526 32.4263 20.6526H17.7197C17.4142 20.6526 17.1523 20.9144 17.1523 21.2199Z" fill="#C7C7C7"/>
<path d="M40.8921 20.6526H35.5244C35.2189 20.6526 34.957 20.9144 34.957 21.2199V27.024C34.957 27.3295 35.2189 27.5913 35.5244 27.5913H40.9357C41.2412 27.5913 41.503 27.3295 41.503 27.024V21.2199C41.4594 20.9144 41.1975 20.6526 40.8921 20.6526Z" fill="#C7C7C7"/>
</svg>
