<svg width="48" height="48" viewBox="0 0 48 48" fill="none" xmlns="http://www.w3.org/2000/svg">
<rect x="1.01587" y="1.01587" width="45.9683" height="45.9683" rx="22.9841" fill="#1E003F" fill-opacity="0.97" stroke="url(#paint0_linear_1759_1513)" stroke-width="2.03174"/>
<g filter="url(#filter0_i_1759_1513)">
<path d="M22.7598 30.9028C22.5065 30.2324 22.2681 29.5768 22.0446 28.9361C21.8211 28.2805 21.5902 27.6175 21.3518 26.947H14.3342L12.9262 30.9028H10.6689C11.2649 29.2639 11.8236 27.7516 12.3451 26.366C12.8666 24.9654 13.3732 23.6394 13.8649 22.3878C14.3714 21.1363 14.8706 19.9443 15.3622 18.812C15.8539 17.6647 16.368 16.5324 16.9043 15.4149H18.8934C19.4298 16.5324 19.9438 17.6647 20.4355 18.812C20.9272 19.9443 21.4189 21.1363 21.9105 22.3878C22.4171 23.6394 22.9311 24.9654 23.4526 26.366C23.9741 27.7516 24.5328 29.2639 25.1288 30.9028H22.7598ZM20.726 25.1591C20.2493 23.8629 19.7725 22.6113 19.2957 21.4045C18.8338 20.1827 18.3496 19.0131 17.843 17.8957C17.3215 19.0131 16.8224 20.1827 16.3456 21.4045C15.8837 22.6113 15.4218 23.8629 14.96 25.1591H20.726ZM26.1656 25.1144C26.1656 24.0864 26.3146 23.1924 26.6126 22.4325C26.9106 21.6578 27.3054 21.0171 27.7971 20.5105C28.2888 20.0039 28.8549 19.624 29.4956 19.3707C30.1363 19.1174 30.7919 18.9908 31.4623 18.9908C33.0268 18.9908 34.2262 19.4824 35.0605 20.4658C35.8949 21.4343 36.3121 22.9168 36.3121 24.9133C36.3121 25.0027 36.3121 25.1219 36.3121 25.2709C36.3121 25.405 36.3046 25.5316 36.2897 25.6508H28.3335C28.4228 26.8576 28.773 27.774 29.3839 28.3997C29.9947 29.0255 30.9483 29.3384 32.2445 29.3384C32.9746 29.3384 33.5855 29.2788 34.0772 29.1596C34.5838 29.0255 34.9637 28.8989 35.217 28.7797L35.5075 30.5229C35.2542 30.657 34.8072 30.7985 34.1666 30.9475C33.5408 31.0965 32.8256 31.171 32.0211 31.171C31.0079 31.171 30.1288 31.022 29.3839 30.724C28.6538 30.4112 28.0504 29.9865 27.5736 29.4501C27.0968 28.9138 26.7392 28.2805 26.5008 27.5505C26.2773 26.8055 26.1656 25.9935 26.1656 25.1144ZM34.1442 23.9746C34.1591 23.036 33.9207 22.2686 33.429 21.6727C32.9523 21.0618 32.2892 20.7563 31.44 20.7563C30.9632 20.7563 30.5386 20.8532 30.1661 21.0469C29.8085 21.2257 29.5031 21.4641 29.2498 21.7621C28.9965 22.06 28.7953 22.4027 28.6463 22.7901C28.5122 23.1775 28.4228 23.5723 28.3782 23.9746H34.1442Z" fill="url(#paint1_linear_1759_1513)"/>
</g>
<defs>
<filter id="filter0_i_1759_1513" x="10.6689" y="15.4149" width="25.9991" height="15.9593" filterUnits="userSpaceOnUse" color-interpolation-filters="sRGB">
<feFlood flood-opacity="0" result="BackgroundImageFix"/>
<feBlend mode="normal" in="SourceGraphic" in2="BackgroundImageFix" result="shape"/>
<feColorMatrix in="SourceAlpha" type="matrix" values="0 0 0 0 0 0 0 0 0 0 0 0 0 0 0 0 0 0 127 0" result="hardAlpha"/>
<feOffset dx="0.355554" dy="0.203174"/>
<feGaussianBlur stdDeviation="0.22857"/>
<feComposite in2="hardAlpha" operator="arithmetic" k2="-1" k3="1"/>
<feColorMatrix type="matrix" values="0 0 0 0 1 0 0 0 0 1 0 0 0 0 1 0 0 0 0.15 0"/>
<feBlend mode="normal" in2="shape" result="effect1_innerShadow_1759_1513"/>
</filter>
<linearGradient id="paint0_linear_1759_1513" x1="0" y1="0" x2="48" y2="48" gradientUnits="userSpaceOnUse">
<stop stop-color="#CF9DFE"/>
<stop offset="0.71875" stop-color="#934AD7"/>
<stop offset="1" stop-color="#7C35BC"/>
</linearGradient>
<linearGradient id="paint1_linear_1759_1513" x1="0" y1="8.90283" x2="22.9513" y2="49.8487" gradientUnits="userSpaceOnUse">
<stop stop-color="#CF9DFE"/>
<stop offset="0.71875" stop-color="#934AD7"/>
<stop offset="1" stop-color="#7C35BC"/>
</linearGradient>
</defs>
</svg>
